  0
SECTION
  2
HEADER
  9
$ACADVER
  1
AC1015
  9
$INSUNITS
 70
     1
  9
$EXTMIN
 10
-120.0
 20
-60.0
 30
0.0
  9
$EXTMAX
 10
120.0
 20
140.0
 30
0.0
  0
ENDSEC
  0
SECTION
  2
TABLES
  0
TABLE
  2
LAYER
 70
     6
  0
LAYER
  2
BOUNDARY
 70
     0
 62
     7
  6
CONTINUOUS
  0
LAYER
  2
CENTER
 70
     0
 62
     3
  6
DASHED
  0
LAYER
  2
TRAPS
 70
     0
 62
     2
  6
CONTINUOUS
  0
LAYER
  2
STATIONS
 70
     0
 62
     5
  6
CONTINUOUS
  0
LAYER
  2
TARGET-PATH
 70
     0
 62
     6
  6
CONTINUOUS
  0
LAYER
  2
ANNOTATION
 70
     0
 62
     1
  6
CONTINUOUS
  0
ENDTAB
  0
ENDTAB
  0
ENDTAB
  0
ENDTAB
  0
ENDTAB
  0
ENDTAB
  0
ENDSEC
  0
SECTION
  2
BLOCKS
  0
ENDSEC
  0
SECTION
  2
ENTITIES
  0
LINE
  8
BOUNDARY
 10
-120.0
 20
0.0
 11
120.0
 21
0.0
  0
LINE
  8
BOUNDARY
 10
-120.0
 20
0.0
 11
-120.0
 21
140.0
  0
LINE
  8
BOUNDARY
 10
120.0
 20
0.0
 11
120.0
 21
140.0
  0
LINE
  8
BOUNDARY
 10
-120.0
 20
140.0
 11
120.0
 21
140.0
  0
LINE
  8
CENTER
 10
0.0
 20
0.0
 11
0.0
 21
140.0
  0
LINE
  8
CENTER
 10
-120.0
 20
30.0
 11
120.0
 21
30.0
  0
LINE
  8
CENTER
 10
-120.0
 20
60.0
 11
120.0
 21
60.0
  0
LINE
  8
CENTER
 10
-120.0
 20
90.0
 11
120.0
 21
90.0
  0
LINE
  8
CENTER
 10
-120.0
 20
120.0
 11
120.0
 21
120.0
  0
LINE
  8
TRAPS
 10
-80.0
 20
125.0
 11
-80.0
 21
145.0
  0
LINE
  8
TRAPS
 10
80.0
 20
125.0
 11
80.0
 21
145.0
  0
CIRCLE
  8
TRAPS
 10
-80.0
 20
135.0
 40
3.5
  0
CIRCLE
  8
TRAPS
 10
80.0
 20
135.0
 40
3.5
  0
LINE
  8
STATIONS
 10
-60.0
 20
0.0
 11
-60.0
 21
18.0
  0
LINE
  8
STATIONS
 10
-40.0
 20
0.0
 11
-40.0
 21
18.0
  0
LINE
  8
STATIONS
 10
-20.0
 20
0.0
 11
-20.0
 21
18.0
  0
LINE
  8
STATIONS
 10
0.0
 20
0.0
 11
0.0
 21
18.0
  0
LINE
  8
STATIONS
 10
20.0
 20
0.0
 11
20.0
 21
18.0
  0
LINE
  8
STATIONS
 10
40.0
 20
0.0
 11
40.0
 21
18.0
  0
LINE
  8
STATIONS
 10
60.0
 20
0.0
 11
60.0
 21
18.0
  0
CIRCLE
  8
STATIONS
 10
-60.0
 20
9.0
 40
2.8
  0
CIRCLE
  8
STATIONS
 10
-40.0
 20
9.0
 40
2.8
  0
CIRCLE
  8
STATIONS
 10
-20.0
 20
9.0
 40
2.8
  0
CIRCLE
  8
STATIONS
 10
0.0
 20
9.0
 40
2.8
  0
CIRCLE
  8
STATIONS
 10
20.0
 20
9.0
 40
2.8
  0
CIRCLE
  8
STATIONS
 10
40.0
 20
9.0
 40
2.8
  0
CIRCLE
  8
STATIONS
 10
60.0
 20
9.0
 40
2.8
  0
TEXT
  8
ANNOTATION
 10
-40.0
 20
150.0
 40
5.0
  1
SKEET FIELD
  0
TEXT
  8
ANNOTATION
 10
-75.0
 20
115.0
 40
4.0
  1
HIGH HOUSE
  0
TEXT
  8
ANNOTATION
 10
72.0
 20
115.0
 40
4.0
  1
LOW HOUSE
  0
TEXT
  8
ANNOTATION
 10
-65.0
 20
90.0
 40
4.0
  1
TARGET FLIGHT PATH
  0
TEXT
  8
ANNOTATION
 10
-50.0
 20
22.0
 40
3.0
  1
STATION 1
  0
TEXT
  8
ANNOTATION
 10
-30.0
 20
22.0
 40
3.0
  1
STATION 2
  0
TEXT
  8
ANNOTATION
 10
-10.0
 20
22.0
 40
3.0
  1
STATION 3
  0
TEXT
  8
ANNOTATION
 10
10.0
 20
22.0
 40
3.0
  1
STATION 4
  0
TEXT
  8
ANNOTATION
 10
30.0
 20
22.0
 40
3.0
  1
STATION 5
  0
TEXT
  8
ANNOTATION
 10
50.0
 20
22.0
 40
3.0
  1
STATION 6
  0
TEXT
  8
ANNOTATION
 10
70.0
 20
22.0
 40
3.0
  1
STATION 7
  0
TEXT
  8
ANNOTATION
 10
-90.0
 20
-20.0
 40
3.0
  1
REFERENCE LAYOUT - NSSA STANDARD
  0
TEXT
  8
ANNOTATION
 10
-90.0
 20
-32.0
 40
2.5
  1
Station Spacing: 20 yards
  0
TEXT
  8
ANNOTATION
 10
-90.0
 20
-44.0
 40
2.5
  1
Trap Heights: 10 ft / 3.5 ft
  0
TEXT
  8
ANNOTATION
 10
-90.0
 20
-56.0
 40
2.5
  1
Field Size: 240 ft x 140 ft
  0
ENDSEC
  0
EOF
