0
SECTION
2
HEADER
9
$ACADVER
1
AC1009
0
ENDSEC
0
SECTION
2
TABLES
0
TABLE
2
LAYER
70
1
0
LAYER
2
0
70
0
62
7
6
CONTINUOUS
0
ENDTAB
0
ENDTAB
0
ENDTAB
0
ENDTAB
0
ENDTAB
0
ENDTAB
0
ENDSEC
0
SECTION
2
BLOCKS
0
ENDSEC
0
SECTION
2
ENTITIES
0
LINE
8
0
10
-120
20
0
11
120
21
0
0
LINE
8
0
10
-120
20
0
11
-120
21
140
0
LINE
8
0
10
120
20
0
11
120
21
140
0
LINE
8
0
10
-120
20
140
11
120
21
140
0
LINE
8
0
10
0
20
0
11
0
21
140
0
LINE
8
0
10
-120
20
30
11
120
21
30
0
LINE
8
0
10
-120
20
60
11
120
21
60
0
LINE
8
0
10
-120
20
90
11
120
21
90
0
LINE
8
0
10
-120
20
120
11
120
21
120
0
LINE
8
0
10
-80
20
125
11
-80
21
145
0
LINE
8
0
10
80
20
125
11
80
21
145
0
CIRCLE
8
0
10
-80
20
135
40
3.5
0
CIRCLE
8
0
10
80
20
135
40
3.5
0
LINE
8
0
10
-60
20
0
11
-60
21
18
0
LINE
8
0
10
-40
20
0
11
-40
21
18
0
LINE
8
0
10
-20
20
0
11
-20
21
18
0
LINE
8
0
10
0
20
0
11
0
21
18
0
LINE
8
0
10
20
20
0
11
20
21
18
0
LINE
8
0
10
40
20
0
11
40
21
18
0
LINE
8
0
10
60
20
0
11
60
21
18
0
CIRCLE
8
0
10
-60
20
9
40
2.8
0
CIRCLE
8
0
10
-40
20
9
40
2.8
0
CIRCLE
8
0
10
-20
20
9
40
2.8
0
CIRCLE
8
0
10
0
20
9
40
2.8
0
CIRCLE
8
0
10
20
20
9
40
2.8
0
CIRCLE
8
0
10
40
20
9
40
2.8
0
CIRCLE
8
0
10
60
20
9
40
2.8
0
TEXT
8
0
10
-40
20
150
40
5
1
SKEET FIELD
0
TEXT
8
0
10
-75
20
115
40
4
1
HIGH HOUSE
0
TEXT
8
0
10
72
20
115
40
4
1
LOW HOUSE
0
TEXT
8
0
10
-65
20
90
40
4
1
TARGET FLIGHT PATH
0
TEXT
8
0
10
-50
20
22
40
3
1
STN 1
0
TEXT
8
0
10
-30
20
22
40
3
1
STN 2
0
TEXT
8
0
10
-10
20
22
40
3
1
STN 3
0
TEXT
8
0
10
10
20
22
40
3
1
STN 4
0
TEXT
8
0
10
30
20
22
40
3
1
STN 5
0
TEXT
8
0
10
50
20
22
40
3
1
STN 6
0
TEXT
8
0
10
70
20
22
40
3
1
STN 7
0
TEXT
8
0
10
-90
20
-20
40
3
1
NSSA STANDARD LAYOUT
0
TEXT
8
0
10
-90
20
-32
40
2.5
1
Station Spacing: 20 yards
0
TEXT
8
0
10
-90
20
-44
40
2.5
1
Trap Heights: 10 ft / 3.5 ft
0
TEXT
8
0
10
-90
20
-56
40
2.5
1
Field Size: 240 ft x 140 ft
0
ENDSEC
0
EOF
